<svg viewBox="0 0 21 20" xmlns="http://www.w3.org/2000/svg" xmlns:xlink="http://www.w3.org/1999/xlink"><style>:root&gt;svg{display:none}:root&gt;svg:target{display:block}</style><svg fill="none" viewBox="0 0 16 13" id="include--mail-logo" xmlns="http://www.w3.org/2000/svg"><path d="M14.75 10.85a.275.275 0 01-.268.267H2.162a.275.275 0 01-.269-.268V4.421c.176.2.369.385.578.552a112.81 112.81 0 013.566 2.83c.627.527 1.406 1.171 2.276 1.171h.017c.87 0 1.65-.644 2.277-1.172a114.812 114.812 0 013.566-2.829c.209-.167.402-.352.577-.552v6.428zm0-8.798c0 .711-.686 1.64-1.23 2.067a517.902 517.902 0 00-3.357 2.654c-.443.36-1.247 1.13-1.833 1.13h-.017c-.586 0-1.39-.77-1.833-1.13a518.446 518.446 0 00-3.356-2.654c-.754-.594-1.23-1.423-1.23-2.377 0-.142.125-.268.267-.268h12.321c.319 0 .268.368.268.578zm1.072-.31c0-.737-.603-1.34-1.34-1.34H2.162c-.738 0-1.34.603-1.34 1.34v9.107c0 .737.602 1.34 1.34 1.34h12.32c.737 0 1.34-.603 1.34-1.34V1.742z" fill="#3E9CDC"/></svg><svg fill="none" viewBox="0 0 21 20" id="include--qiwi-logo" xmlns="http://www.w3.org/2000/svg"><path d="M16.912 13.456c.06.388-.067.552-.195.552s-.314-.158-.521-.47c-.207-.313-.278-.661-.178-.84a.287.287 0 01.17-.126.298.298 0 01.213.022c.341.124.475.63.51.862zm-1.888.85c.41.335.535.733.318 1.013a.687.687 0 01-.55.238.998.998 0 01-.626-.218c-.37-.314-.48-.825-.237-1.114a.534.534 0 01.434-.176c.245.008.479.099.661.257zm-.684 3.23c1.762 0 3.674.585 5.791 2.4.211.18.493-.045.309-.27-2.08-2.54-4.008-3.025-5.922-3.433-2.346-.502-3.554-1.78-4.4-3.182-.166-.279-.242-.23-.257.13a7.655 7.655 0 00.124 1.59H9.7a6.226 6.226 0 01-3.377-.992 5.927 5.927 0 01-2.239-2.639 5.701 5.701 0 01-.345-3.397A5.823 5.823 0 015.4 4.733a6.145 6.145 0 013.112-1.61 6.27 6.27 0 013.512.335 6.04 6.04 0 012.728 2.166 5.744 5.744 0 01.986 3.95 9.38 9.38 0 00-1.93-.035c-.232.02-.198.13-.025.154 2.004.35 3.391 1.55 3.706 3.74a.053.053 0 00.014.03.057.057 0 00.063.014.055.055 0 00.025-.021 8.658 8.658 0 001.24-5.608 8.78 8.78 0 00-2.554-5.176 9.31 9.31 0 00-5.29-2.59A9.46 9.46 0 005.165 1.15a9.001 9.001 0 00-3.94 4.286 8.625 8.625 0 00-.417 5.72 8.884 8.884 0 003.28 4.779A9.399 9.399 0 009.7 17.784c1.343.004 2.68-.25 4.641-.25v.002z" fill="#3E9CDC"/></svg><svg fill="none" viewBox="0 0 12 14" id="include--vk-logo" xmlns="http://www.w3.org/2000/svg"><path d="M11.18 9.286c0 .65-.123 1.222-.369 1.714s-.577.9-.993 1.222a4.598 4.598 0 01-1.626.826c-.586.164-1.333.246-2.241.246H.713V.207h4.623c.96 0 1.687.038 2.18.114.497.07.963.223 1.397.457.469.252.817.59 1.046 1.011.234.422.351.908.351 1.46 0 .638-.16 1.206-.483 1.704a2.793 2.793 0 01-1.318 1.099v.07c.808.17 1.456.519 1.942 1.046.486.522.73 1.228.73 2.118zM6.97 3.907c0-.21-.055-.427-.167-.65a.961.961 0 00-.5-.483 2.042 2.042 0 00-.774-.15 36.06 36.06 0 00-1.318-.017h-.229v2.768h.413c.563 0 .955-.006 1.178-.017a1.91 1.91 0 00.703-.185c.264-.123.445-.293.545-.51.1-.217.15-.469.15-.756zm.827 5.318c0-.405-.082-.721-.246-.95-.165-.228-.41-.4-.739-.518-.199-.076-.474-.117-.826-.123a43.437 43.437 0 00-1.397-.018h-.607v3.279h.176c.855 0 1.447-.006 1.775-.018a2.77 2.77 0 001.002-.237c.3-.13.516-.317.65-.563.141-.252.212-.536.212-.852z" fill="#3E9CDC"/></svg><svg fill="none" viewBox="0 0 19 18" id="include--wm-logo" xmlns="http://www.w3.org/2000/svg"><path d="M9.34 0a9.12 9.12 0 013.957.901c.189.085.379.187.567.29l-.826.73L11.801.647l-2.133 1.87-1.256-1.343L4.49 4.66l2.511 2.737-.98.85 2.477 2.738-.98.85 3.543 3.893 2.098-1.904 1.824 2.04c-.362.273-.758.546-1.187.783a9.07 9.07 0 01-4.438 1.156c-4.971 0-9.012-3.995-9.012-8.909C.328 4.013 4.37 0 9.34 0zM7.69 8.349l2.15-1.905 1.926 2.126-2.15 1.904-1.927-2.125zm1.53 3.672l2.133-1.92 1.944 2.124-2.15 1.905-1.927-2.11zM6.16 4.727l2.149-1.904 1.926 2.125-2.15 1.904L6.16 4.727zm3.937-1.02l1.6-1.429 1.445 1.582-1.6 1.445-1.445-1.598zm2.856 6.546l1.6-1.428 1.444 1.597-1.6 1.43-1.444-1.6zm1.41 3.214l1.6-1.429 1.444 1.582-1.6 1.444-1.444-1.597zm.654-7.346l1.066-.952.963 1.054-1.066.952-.963-1.054zM13.64 2.975l1.066-.968.964 1.07-1.067.953-.963-1.055zm2.734 6.292l1.067-.952.98 1.054-1.083.952-.963-1.054zm-4.798-2.364l1.6-1.428 1.444 1.581-1.599 1.429-1.445-1.582z" fill="#3E9CDC"/></svg><svg fill="none" viewBox="0 0 15 18" id="include--ym-logo" xmlns="http://www.w3.org/2000/svg"><path fill-rule="evenodd" clip-rule="evenodd" d="M.78 8.93c0-.983.083-1.608 2.138-3.13C4.62 4.542 10.073.238 10.073.238v7.185h4.147v10.34H2.075A1.294 1.294 0 01.78 16.479V8.93z" fill="#3E9CDC"/><path fill-rule="evenodd" clip-rule="evenodd" d="M10.073 7.422v4.163l-7.62 5.148 9.634-3.108V7.422h-2.014z" fill="#000" fill-opacity=".2"/><path fill-rule="evenodd" clip-rule="evenodd" d="M6.59 7.207c.446-.527 1.097-.713 1.454-.415.358.297.286.965-.16 1.492-.445.526-1.096.712-1.453.415-.358-.298-.286-.966.16-1.492z" fill="#231F20"/></svg></svg>